<svg width="51" height="37" viewBox="0 0 51 37" fill="none" xmlns="http://www.w3.org/2000/svg">
<path d="M34.6667 4.77783H8C3.58172 4.77783 0 8.35955 0 12.7778V28.7778C0 33.1961 3.58172 36.7778 8 36.7778H34.6667C39.085 36.7778 42.6667 33.1961 42.6667 28.7778V12.7778C42.6667 8.35955 39.085 4.77783 34.6667 4.77783Z" fill="#0C9DB3" fill-opacity="0.4"/>
<mask id="mask0_7_15" style="mask-type:alpha" maskUnits="userSpaceOnUse" x="0" y="4" width="43" height="33">
<path d="M34.6667 4.77783H8C3.58172 4.77783 0 8.35955 0 12.7778V28.7778C0 33.1961 3.58172 36.7778 8 36.7778H34.6667C39.085 36.7778 42.6667 33.1961 42.6667 28.7778V12.7778C42.6667 8.35955 39.085 4.77783 34.6667 4.77783Z" fill="#F5F7FF"/>
</mask>
<g mask="url(#mask0_7_15)">
<path d="M12.2903 19.4905L-3.39908 8.00362C-3.50324 7.92735 -3.6014 7.84321 -3.69269 7.75192L-5.48584 5.95876C-6.41363 5.03098 -5.75653 3.44461 -4.44444 3.44461L46.3248 0.941896C50.1188 0.754868 51.8947 5.56641 48.8889 7.88905L30.6818 19.9292C27.2771 22.1807 25.5748 23.3065 23.7409 23.7037C22.1884 24.04 20.578 24.0016 19.0433 23.5916C17.2305 23.1074 15.5837 21.9018 12.2903 19.4905Z" fill="#0C9DB3" fill-opacity="0.85"/>
<path d="M43 15C46.866 15 50 11.866 50 8C50 4.13401 46.866 1 43 1C39.134 1 36 4.13401 36 8C36 11.866 39.134 15 43 15Z" fill="#0B0B2C" stroke="white" stroke-width="2"/>
</g>
</svg>
